<svg width="111" height="73" viewBox="0 0 111 73" fill="none" xmlns="http://www.w3.org/2000/svg">
<path d="M40.9453 4.72115C49.9992 10.8988 57.668 23.224 74.2894 38.834C53.7153 38.834 45.6749 10.2961 28.378 6.86074H3.07432C2.29721 5.80601 2.49996 0.290252 3.07432 0.2009C5.97969 -0.251125 17.77 0.2009 28.378 0.2009C34.1548 0.532386 36.2533 2.53823 40.9453 4.72115Z" fill="white"/>
<path d="M69.2524 14.9131C90.0705 38.5613 96.9424 39.6403 87.3524 38.5613C77.3903 36.5232 77.728 34.1254 55.002 11.2265C46.29 1.18569 42.9801 -0.0731547 48.0456 0.616215C55.9472 2.2647 60.7563 5.26194 69.2524 14.9131Z" fill="white"/>
<path d="M88.2988 14.9131C109.117 38.5613 115.989 39.6403 106.399 38.5613C96.4367 36.5232 96.7744 34.1254 74.0484 11.2265C65.3364 1.18569 62.0265 -0.0731547 67.092 0.616215C74.9936 2.2647 79.8026 5.26194 88.2988 14.9131Z" fill="white"/>
<path d="M33.6738 15.4172C34.477 15.6901 35.4186 16.2786 35.9945 16.8692C36.5631 17.4494 42.6454 23.2274 43.1787 23.6921C43.3619 23.851 43.5035 24.0393 43.4915 24.1103C43.469 24.2435 43.1655 24.2561 40.652 24.1597C39.8526 24.1341 38.2998 24.0815 37.1999 24.0507C33.1217 23.9179 31.9952 23.8826 30.8879 23.8414C30.2618 23.8177 29.3455 23.7814 28.8451 23.7698C27.0998 23.7212 23.2925 23.6068 21.8492 23.5545C19.0086 23.4484 17.9516 23.434 17.8685 23.493C17.8166 23.5299 17.9188 24.1134 18.0875 24.7904C18.2561 25.4673 18.473 26.3443 18.5713 26.7353C18.6695 27.1264 18.8631 27.8715 19.0114 28.3989L19.2711 29.347L19.653 29.3568C19.8721 29.3573 20.8817 29.382 21.9105 29.4008C22.9394 29.4196 24.5959 29.4532 25.5966 29.4763C26.5973 29.4995 28.3811 29.5364 29.555 29.5615C30.7304 29.5776 32.8044 29.6271 34.1515 29.654C35.5075 29.6825 37.5918 29.7246 38.7938 29.7452C39.9959 29.7659 41.6346 29.7965 42.4355 29.8133C43.2452 29.8315 44.2667 29.8399 44.7153 29.8336C45.3297 29.8188 45.8225 29.8748 46.6422 30.05C48.0272 30.3391 48.8198 30.7289 49.7711 31.5839C50.7224 32.4389 54.5791 35.9865 55.8893 37.2036C56.4979 37.7632 57.1153 38.3243 57.2586 38.449C57.6191 38.7474 57.5549 38.9649 57.1256 38.9653C56.9347 38.9604 56.5512 38.9595 56.2759 38.9677C56.002 38.9671 54.2773 38.9584 52.4431 38.9495C50.6104 38.9318 48.338 38.9218 47.3802 38.915C46.4312 38.9098 43.5297 38.8939 40.9464 38.8861C38.3646 38.8695 34.9967 38.8569 33.4645 38.8443C31.9308 38.8405 30.4518 38.8369 30.178 38.8363C29.9026 38.8445 28.4059 38.8379 26.8456 38.8297C25.2956 38.8141 22.7863 38.8006 21.2808 38.7925C18.4695 38.7827 12.0549 38.7479 10.1941 38.7345C9.6197 38.7286 9.1031 38.7052 9.05433 38.6695C9.00406 38.6428 8.54798 36.8578 8.04544 34.6996C7.53402 32.5399 6.91574 29.8781 6.6534 28.7834C6.39257 27.6799 6.1566 26.6993 6.12873 26.5941C6.10086 26.4889 5.97775 25.9749 5.85614 25.452C5.18827 22.4896 4.56261 19.8174 4.0553 17.7954C3.8457 16.9289 3.65987 16.0298 3.65453 15.7914C3.60895 14.4412 4.77858 13.7897 6.95293 13.9474C7.92686 14.0209 10.4891 14.1529 12.3321 14.2181C13.2573 14.2559 14.8278 14.3115 15.8255 14.3524C16.8217 14.4022 19.5351 14.505 21.8576 14.5965C24.1802 14.688 26.6285 14.7917 27.2976 14.8318C28.4655 14.8923 28.8756 14.8978 30.3471 14.891C31.1525 14.8811 32.9401 15.1652 33.6738 15.4172Z" fill="white"/>
<path d="M4.03589 58.8313V67.7546L9.86485 67.5774L15.6372 67.4001L15.807 65.509L15.9768 63.618L12.9774 63.4407C10.1478 63.2634 9.97803 63.1452 9.80826 61.6088C9.63848 60.0723 9.69507 60.0132 12.4681 60.0132C15.1279 60.0132 15.3543 59.895 15.3543 58.5949C15.3543 57.2357 15.0713 57.1175 12.6944 56.9403C10.3742 56.763 9.97803 56.5857 9.80826 55.4629C9.63848 54.281 9.92144 54.1628 12.6378 53.9855C15.5806 53.8082 15.6372 53.7491 15.807 51.8581L15.9768 49.9671H10.0346H4.03589V58.8313Z" fill="white"/>
<path d="M61.7598 58.772V67.6953H64.3064H66.853V63.4996C66.853 58.8902 67.3058 58.7129 69.1167 62.4359C70.7013 65.5679 71.9463 65.4497 73.7006 61.904L75.0588 59.1265L75.2286 63.3814L75.3984 67.6953H77.8884H80.4351V58.772V49.9077L77.8318 50.085L75.172 50.2623L73.1913 54.3398L71.2106 58.4174L69.1733 54.3398L67.136 50.2623L64.4762 50.085L61.7598 49.9077V58.772Z" fill="white"/>
<path d="M107.487 50.3805C106.015 50.6169 105.902 50.8532 105.902 53.3352C105.902 55.6399 105.789 55.9354 104.94 55.5217C104.374 55.2854 102.903 54.9899 101.658 54.8126C99.7336 54.6353 99.1111 54.8717 97.8661 56.1718C95.0365 59.1265 95.1497 63.6178 98.0924 66.2179C100.017 67.9317 102.733 68.1681 104.657 66.7498C105.789 65.9225 105.902 65.9225 105.902 66.7498C105.902 67.4589 106.525 67.6953 108.449 67.6953H110.995V58.8311C110.995 49.0804 111.278 49.7895 107.487 50.3805ZM105.336 59.9539C106.411 62.0813 104.714 63.9723 102.45 63.2632C101.148 62.7904 100.526 60.7812 101.375 59.7175C102.393 58.4765 104.6 58.6538 105.336 59.9539Z" fill="white"/>
<path d="M18.6944 56.4085C17.3362 57.8859 17.0532 58.6541 17.0532 61.077C17.0532 63.6181 17.3362 64.2681 18.8642 65.8637C20.9015 67.932 24.297 68.4048 25.542 66.8092C26.1645 65.9819 26.3343 66.041 26.9002 66.8683C27.3529 67.5184 28.2584 67.6957 29.7864 67.5775L32.0501 67.4002L32.2198 61.0179L32.3896 54.6948H29.843C28.1452 54.6948 27.1266 54.9902 26.787 55.6403C26.3343 56.4676 26.2211 56.4676 25.5986 55.6403C25.1459 55.0493 23.9574 54.6948 22.5992 54.6948C20.9015 54.6948 19.996 55.1084 18.6944 56.4085ZM25.9947 59.3633C27.0134 60.0133 26.6172 62.3771 25.4288 63.2044C23.4481 64.5045 21.241 61.6089 22.7124 59.7178C23.5047 58.7132 24.8629 58.595 25.9947 59.3633Z" fill="white"/>
<path d="M35.5011 55.9354C32.8413 58.1219 33.8033 62.0813 37.1423 62.7313C39.9153 63.2632 39.6889 64.386 36.9159 63.9723C34.8786 63.7359 34.6522 63.795 34.3127 65.2133C33.8599 67.1635 34.7088 67.6953 38.3307 67.6953C40.6509 67.6953 41.4432 67.3998 42.5185 66.277C43.1976 65.4497 43.8201 64.0905 43.8201 63.2041C43.8201 61.4312 41.896 59.422 40.1982 59.422C39.6323 59.422 39.0098 59.1265 38.84 58.8311C38.6136 58.4765 39.4059 58.2401 40.7075 58.2401C42.5185 58.2401 43.0278 58.0037 43.2542 56.94C43.7635 54.9899 43.3108 54.6944 40.0284 54.6944C37.8214 54.6944 36.5763 55.049 35.5011 55.9354Z" fill="white"/>
<path d="M45.4044 59.3634C45.6308 63.3228 45.8571 64.2683 46.989 65.5684C48.5735 67.3412 51.2334 67.5776 53.1575 66.1593C54.1761 65.4502 54.4025 65.4502 54.4025 66.0411C54.4025 67.4003 53.1575 68.2867 51.2334 68.2867C49.6488 68.2867 49.4224 68.5231 49.196 70.0596C49.0263 71.0642 49.0829 71.9506 49.196 72.1279C49.8751 72.778 54.5723 72.3643 56.1568 71.4779C58.7035 70.1187 59.4958 67.5185 59.4958 60.6044V54.6949H56.9491H54.4025V57.2951C54.4025 60.7817 53.5536 62.9682 52.1954 62.9682C50.8372 62.9682 50.4411 61.8454 50.4411 57.886V54.6949H47.8378H45.2346L45.4044 59.3634Z" fill="white"/>
<path d="M84.8495 56.0536C82.0765 58.4765 81.454 61.0767 82.982 64.1496C84.1138 66.3952 86.5473 67.6953 89.7164 67.6953C93.2817 67.6953 94.0174 67.2816 94.0174 65.2133C94.0174 63.4996 93.9608 63.4405 91.9235 63.8541C90.4521 64.0905 89.4334 63.9132 88.6978 63.3814C87.6791 62.6131 87.8489 62.495 91.0746 62.0813C94.4701 61.6676 94.5833 61.6085 94.5833 60.013C94.5833 59.0674 93.9608 57.531 93.1119 56.5264C91.8669 54.9308 91.2444 54.6944 89.0373 54.6944C87.1132 54.6944 85.9813 55.049 84.8495 56.0536ZM90.4521 58.5947C90.5653 58.9493 89.9428 59.422 89.0939 59.5993C87.1698 59.9539 86.8302 59.7175 87.7923 58.5356C88.5846 57.531 90.1125 57.531 90.4521 58.5947Z" fill="white"/>
</svg>
